<?xml version="1.0" standalone="no"?>
<svg id="canvas" width="680.314960638" height="933.5433070977" style="overflow: hidden;" xmlns="http://www.w3.org/2000/svg"> <defs></defs><g id="two-0" transform="matrix(1 0 0 1 0 0)" opacity="1"><path transform="matrix(1 0 0 1 340.15747 466.771667)" id="two-125" d="M 340.15748 -0.00367 L 134.650781 309.335203 L 101.679205 463.307067 L -222.528852 384.578778 L -194.806515 112.692014 L -309.409211 -215.796725 L -28.445415 -435.902315 L 26.637647 -437.075612 L 308.505973 -218.727323 L 195.25803 109.476023 L 224.104914 382.692641 L -99.773613 463.698107 L -133.376183 311.807018 L -340.157481 3.307437 L -135.928812 -306.855163 L -103.5968 -462.900055 L 220.931384 -386.452903 L 194.328078 -115.909676 L 310.286672 212.847927 L 30.234632 434.699742 L -24.838747 438.219576 L -307.604329 221.639575 L -195.709929 -106.261864 L -225.686818 -380.794589 L 97.852792 -464.073155 L 132.077755 -314.270483 L 340.130157 -6.62572 L 137.182884 304.345001 L 105.498973 462.455067 L -219.339917 388.292901 L -193.850072 119.106823 L -311.165638 -209.9031 L -32.032537 -433.489977 L 23.021479 -439.35617 L 306.676998 -224.555355 L 196.134861 103.027675 L 227.247157 378.862693 L -95.944165 464.41017 L -130.78289 316.703453 L -340.102836 9.928987 L -138.440262 -301.834207 L -107.412956 -462.001491 L 217.727205 -390.128041 L 193.345192 -122.312659 L 312.018738 206.93303 L 33.811712 432.243717 L -21.213261 440.455975 L -305.751354 227.445154 L -196.560131 -99.802985 L -228.813179 -376.926415 L 94.020502 -464.738497 L 129.464325 -319.135168 L 340.048194 -13.246436 L 139.673555 299.293542 L 109.311326 461.509986 L -216.120656 391.928869 L -192.840792 125.497658 L -312.873256 -203.967228 L -35.599393 -430.990389 L 19.386857 -441.548297 L 304.800117 -230.338191 L 196.958393 96.55859 L 230.35748 374.956489 L -92.109227 465.028757 L -128.149453 321.536143 L -339.993559 16.548537 L -140.910028 -296.752499 L -111.221314 -461.009939 L 214.493023 -393.724657 L 192.30957 -128.691024 L 313.701822 200.976481 L 37.368164 429.700692 L -17.569686 442.60372 L -303.85066 233.204954 L -197.356952 -93.324019 L -231.907307 -372.982377 L 90.183108 -465.310298 L 126.811015 -323.93562 L 339.911607 -19.864487 L 142.122292 294.181841 L 113.115496 460.472013 L -212.871716 395.485951 L -191.778879 131.863232 L -314.531721 -197.990303 L -39.145264 -428.404054 L 15.734512 -443.651553 L 302.875706 -236.074665 L 197.728462 90.07007 L 233.435257 370.974814 L -88.26957 465.553744 L -125.476404 326.304115 L -339.829669 23.164756 L -143.337613 -291.611063 L -115.021106 -459.925598 L 211.229488 -397.242027 L 191.221419 -135.043488 L 315.335585 194.979481 L 40.903275 427.071178 L -13.908754 444.662379 L -301.902629 238.917815 L -198.10023 -86.82627 L -234.968579 -368.963267 L 86.341382 -465.788446 L 124.118361 -328.670873 L 339.720424 -26.478541 L 144.528603 289.010929 L 116.910719 459.341358 L -209.593751 398.963431 L -190.664546 138.202265 L -316.140699 -191.973528 L -42.669436 -425.731493 L 12.065179 -445.665512 L 300.904153 -241.763624 L 198.444912 83.563419 L 236.479869 366.918471 L -84.425968 465.985027 L -122.76428 331.00641 L -339.611202 29.776311 L -145.722529 -286.410934 L -118.811568 -458.748686 L 207.937258 -400.679442 L 190.08096 -141.368771 L 316.919698 188.943234 L 44.416332 424.355704 L -10.231204 446.631538 L -299.907654 244.582587 L -198.789816 -80.311046 L -237.996378 -364.869894 L 82.496097 -466.172842 L 121.386904 -333.339973 L 339.474683 -33.087265 L 146.892003 283.781845 L 120.69623 458.118249 L -206.28742 402.360609 L -189.498017 144.513481 L -317.699868 -185.918115 L -46.171201 -422.973244 L 8.379596 -447.589772 L 298.885856 -247.403924 L 199.107599 77.039949 L 239.490703 362.788275 L -80.579193 466.322518 L -120.013628 335.642081 L -339.3382 36.381873 L -148.064294 -281.153158 L -122.591938 -457.479441 L 204.616994 -404.036211 L 188.888421 -147.665601 L 318.453842 182.868958 L 47.906628 421.554818 L -6.537775 448.510801 L -297.866136 250.198129 L -199.425571 -73.779658 L -240.990096 -360.703083 L 78.648027 -466.46341 L 118.617194 -337.941981 L 339.174433 -39.689331 L 149.212016 278.495642 L 124.471268 456.802931 L -202.95339 405.676801 L -188.279528 150.795609 L -319.208911 -179.825281 L -49.649853 -420.129861 L 4.678507 -449.423943 L 296.821219 -252.994427 L 199.71639 70.500972 L 242.467153 358.585059 L -76.730021 466.566148 L -117.225 340.210194 L -339.010718 42.980111 L -150.362438 -275.838793 L -126.361453 -456.118116 L 201.269365 -407.311659 L 187.644043 -153.932711 L 319.93771 176.757874 L 51.373461 418.669082 L -2.829211 450.299789 L -295.778485 255.763313 L -200.007368 -67.23342 L -243.949129 -356.463672 L 74.797946 -466.660091 L 115.809788 -342.47597 L 338.819736 -46.283409 L 151.488176 273.153383 L 128.235072 455.395668 L -199.592332 408.911339 L -187.009323 157.047385 L -320.667527 -173.696254 L -53.104692 -417.201917 L 0.962654 -451.167657 L 294.710659 -258.53401 L 200.271162 63.947804 L 245.40862 354.309667 L -72.879226 466.71587 L -114.398958 344.709831 L -338.628823 49.569697 L -152.616499 -270.46891 L -130.119356 -454.664987 L 197.895046 -410.505125 L 186.348075 -160.168838 L 321.371001 170.611212 L 54.816133 415.699078 L 0.893742 451.998142 L -293.645123 261.277016 L -200.535088 -60.673651 L -246.872882 -352.152515 L 70.94663 -466.762846 L 112.965252 -346.941028 L 338.410662 -52.868172 L 153.720024 267.756146 L 131.986884 453.896746 L -196.204921 412.063573 L -185.687659 163.26755 L -322.075422 -167.532267 L -56.535024 -414.190002 L -2.767213 -452.820563 L 292.554601 -264.021557 L 200.771804 57.381764 L 248.314512 349.962961 L -69.027583 466.771653 L -111.53607 349.140085 L -338.192592 56.149306 L -154.826022 -265.044589 L -133.86489 -453.120346 L 194.494714 -413.615968 L 185.00078 -166.372728 L 322.753428 164.43021 L 58.233951 412.645403 L 4.630335 453.605518 L -291.466477 266.738131 L -201.008626 -54.101671 L -249.760766 -347.770479 L 67.094854 -466.771654 L 110.084158 -351.336256 L 337.947295 -59.442295 L 155.907111 262.305014 L 135.725951 452.306464 L -192.79184 415.132869 L -184.314801 169.454853 L -323.432311 -161.334561 L -59.940156 -411.094721 L -6.510343 -454.382329 L 290.353479 -269.455964 L 201.218214 50.804174 L 251.184244 345.545815 L -65.175868 466.733486 L -108.636914 353.500066 L -337.702111 62.717612 L -156.990563 -259.566922 L -137.597301 -451.484504 L 191.069056 -416.643561 L 183.602428 -172.543132 L 324.084711 158.216111 L 61.626227 409.508672 L 8.379816 455.121594 L -289.242988 272.145557 L -201.427886 -47.518802 L -252.612201 -343.318446 L 63.243393 -466.686513 L 107.167086 -355.660769 L 337.429726 -66.004455 L 158.048997 256.801087 L 139.451519 450.625144 L -189.353775 418.118607 L -182.891025 175.608048 L -324.737923 -155.104382 L -63.319405 -407.916698 L -10.265985 -455.852639 L 288.107735 -274.836137 L 201.610304 44.216357 L 254.017238 341.059119 L -61.324854 466.601376 L -105.702073 357.788895 L -337.15748 69.273294 L -159.109686 -254.037011 L -141.315838 -449.757791 L 187.618759 -419.587295 L 182.1533 -178.678809 L 325.364585 151.970167 L 64.992278 406.289516 L 12.141429 456.546064 L -286.975102 277.498206 L -201.792785 -40.926369 L -255.426611 -338.797312 L 59.393022 -466.507441 L 104.214623 -359.913698 L 336.85806 -72.55333 L 160.145251 251.245471 L 143.162838 448.853124 L -185.89142 421.020188 L -181.416618 181.725897 L -325.991993 -148.842986 L -66.67209 -404.656572 L -14.03338 -457.231198 L 285.817821 -280.160993 L 201.947993 37.61964 L 256.812924 336.503776 L -57.475319 466.37535 L -102.732137 362.005709 L -336.558809 75.815032 L -161.182965 -248.45597 L -145.019753 -447.940552 L 184.144518 -422.446577 L 180.653689 -184.778522 L 326.59279 145.693634 L 68.331427 402.988584 L 15.914418 457.878643 L -284.663276 282.795 L -202.103248 -34.3257 L -258.203432 -334.207988 L 55.544516 -466.234473 L 101.227363 -364.094186 L 336.232413 -79.087602 L 162.195451 245.639285 L 146.859162 446.990759 L -182.405469 423.837027 L -179.891877 187.807168 L -327.194271 -142.551632 L -69.997535 -401.315 L -17.811773 -458.517729 L 283.484199 -285.42946 L 202.231215 31.015351 L 259.570739 331.880701 L -53.628036 466.055453 L -99.727704 366.14966 L -335.906217 82.34151 L -163.209983 -242.824921 L -148.708299 -446.033156 L 180.647034 -425.220832 L 179.103895 -190.841045 L 327.769079 139.387776 L 71.643002 399.60654 L 19.698023 459.119061 L -282.307976 288.034875 L -202.359213 -27.718122 L -260.942104 -329.551397 L 51.69865 -465.867664 L 98.205908 -368.201391 L 335.55291 -85.605957 L 164.199184 239.983657 L 150.539746 445.038426 L -178.896626 426.568558 L -178.317109 193.850637 L -328.344513 -136.231587 L -73.295073 -397.892653 L -21.600401 -459.711972 L 281.107338 -290.640478 L 202.459911 24.404818 L 262.290129 327.190827 L -49.78378 465.64175 L -96.689379 370.219913 L -335.199837 88.851414 L -165.190331 -237.144999 L -152.380735 -444.035984 L 177.127009 -427.909501 L 177.504232 -196.865157 L 328.893216 133.053861 L 74.926336 396.144063 L 23.491483 460.267069 L -279.909674 293.216774 L -202.560629 -21.104967 L -263.642075 -324.828476 L 47.856197 -465.407088 L 95.150865 -372.234488 L 334.819688 -92.107082 L 166.156047 234.279726 L 154.203849 442.996517 L -175.365597 429.21423 L -176.692631 199.855089 L -329.442488 -129.884122 L -76.564038 -394.390222 L -25.398502 -460.813687 L 278.687717 -295.792998 L 202.634037 17.789372 L 264.970546 322.435097 L -45.943325 465.134325 L -93.617773 374.21565 L -334.43981 95.343434 L -167.12361 -231.417346 L -156.036322 -441.94944 L 173.585152 -430.512043 L 175.85502 -202.849646 L 329.964975 126.693166 L 78.180769 392.601853 L 27.294034 461.322436 L -277.468855 298.339656 L -202.707456 -14.487564 L -266.302803 -320.040175 L 44.017932 -464.852838 L 92.062851 -376.192663 L 334.032895 -98.589669 L 168.065646 228.528639 L 157.850735 440.865443 L -171.813091 431.773512 L -175.018769 205.819314 L -330.487976 -123.510516 L -79.803774 -390.80841 L -29.205312 -461.822653 L 276.225822 -300.885983 L 202.753556 11.170345 L 267.611451 317.614468 " fill="none" stroke="#000" stroke-width="0.75590551182" stroke-opacity="1" fill-opacity="1" visibility="visible" stroke-linecap="butt" stroke-linejoin="miter" stroke-miterlimit="4"></path></g><defs></defs><g id="two-1" transform="matrix(1 0 0 1 0 0)" opacity="1"></g><defs></defs><g id="two-4" transform="matrix(1 0 0 1 0 0)" opacity="1"></g><defs></defs><g id="two-6" transform="matrix(1 0 0 1 0 0)" opacity="1"></g><defs></defs><g id="two-8" transform="matrix(1 0 0 1 0 0)" opacity="1"></g><defs></defs><g id="two-10" transform="matrix(1 0 0 1 0 0)" opacity="1"></g><defs></defs><g id="two-12" transform="matrix(1 0 0 1 0 0)" opacity="1"></g><defs></defs><g id="two-14" transform="matrix(1 0 0 1 0 0)" opacity="1"></g><defs></defs><g id="two-16" transform="matrix(1 0 0 1 0 0)" opacity="1"></g><defs></defs><g id="two-18" transform="matrix(1 0 0 1 0 0)" opacity="1"></g><defs></defs><g id="two-20" transform="matrix(1 0 0 1 0 0)" opacity="1"></g><defs></defs><g id="two-22" transform="matrix(1 0 0 1 0 0)" opacity="1"></g><defs></defs><g id="two-24" transform="matrix(1 0 0 1 0 0)" opacity="1"></g><defs></defs><g id="two-26" transform="matrix(1 0 0 1 0 0)" opacity="1"></g><defs></defs><g id="two-28" transform="matrix(1 0 0 1 0 0)" opacity="1"></g><defs></defs><g id="two-30" transform="matrix(1 0 0 1 0 0)" opacity="1"></g><defs></defs><g id="two-32" transform="matrix(1 0 0 1 0 0)" opacity="1"></g><defs></defs><g id="two-34" transform="matrix(1 0 0 1 0 0)" opacity="1"></g><defs></defs><g id="two-36" transform="matrix(1 0 0 1 0 0)" opacity="1"></g><defs></defs><g id="two-38" transform="matrix(1 0 0 1 0 0)" opacity="1"></g><defs></defs><g id="two-40" transform="matrix(1 0 0 1 0 0)" opacity="1"></g><defs></defs><g id="two-42" transform="matrix(1 0 0 1 0 0)" opacity="1"></g><defs></defs><g id="two-44" transform="matrix(1 0 0 1 0 0)" opacity="1"></g><defs></defs><g id="two-46" transform="matrix(1 0 0 1 0 0)" opacity="1"></g><defs></defs><g id="two-48" transform="matrix(1 0 0 1 0 0)" opacity="1"></g><defs></defs><g id="two-50" transform="matrix(1 0 0 1 0 0)" opacity="1"></g><defs></defs><g id="two-52" transform="matrix(1 0 0 1 0 0)" opacity="1"></g><defs></defs><g id="two-54" transform="matrix(1 0 0 1 0 0)" opacity="1"></g><defs></defs><g id="two-56" transform="matrix(1 0 0 1 0 0)" opacity="1"></g><defs></defs><g id="two-58" transform="matrix(1 0 0 1 0 0)" opacity="1"></g><defs></defs><g id="two-60" transform="matrix(1 0 0 1 0 0)" opacity="1"></g><defs></defs><g id="two-62" transform="matrix(1 0 0 1 0 0)" opacity="1"></g><defs></defs><g id="two-64" transform="matrix(1 0 0 1 0 0)" opacity="1"></g><defs></defs><g id="two-66" transform="matrix(1 0 0 1 0 0)" opacity="1"></g><defs></defs><g id="two-68" transform="matrix(1 0 0 1 0 0)" opacity="1"></g><defs></defs><g id="two-70" transform="matrix(1 0 0 1 0 0)" opacity="1"></g><defs></defs><g id="two-72" transform="matrix(1 0 0 1 0 0)" opacity="1"></g><defs></defs><g id="two-74" transform="matrix(1 0 0 1 0 0)" opacity="1"></g><defs></defs><g id="two-76" transform="matrix(1 0 0 1 0 0)" opacity="1"></g><defs></defs><g id="two-78" transform="matrix(1 0 0 1 0 0)" opacity="1"></g><defs></defs><g id="two-80" transform="matrix(1 0 0 1 0 0)" opacity="1"></g><defs></defs><g id="two-82" transform="matrix(1 0 0 1 0 0)" opacity="1"></g><defs></defs><g id="two-84" transform="matrix(1 0 0 1 0 0)" opacity="1"></g><defs></defs><g id="two-86" transform="matrix(1 0 0 1 0 0)" opacity="1"></g><defs></defs><g id="two-88" transform="matrix(1 0 0 1 0 0)" opacity="1"></g><defs></defs><g id="two-90" transform="matrix(1 0 0 1 0 0)" opacity="1"></g><defs></defs><g id="two-92" transform="matrix(1 0 0 1 0 0)" opacity="1"></g><defs></defs><g id="two-94" transform="matrix(1 0 0 1 0 0)" opacity="1"></g><defs></defs><g id="two-96" transform="matrix(1 0 0 1 0 0)" opacity="1"></g><defs></defs><g id="two-98" transform="matrix(1 0 0 1 0 0)" opacity="1"></g><defs></defs><g id="two-100" transform="matrix(1 0 0 1 0 0)" opacity="1"></g><defs></defs><g id="two-102" transform="matrix(1 0 0 1 0 0)" opacity="1"></g><defs></defs><g id="two-104" transform="matrix(1 0 0 1 0 0)" opacity="1"></g><defs></defs><g id="two-106" transform="matrix(1 0 0 1 0 0)" opacity="1"></g><defs></defs><g id="two-108" transform="matrix(1 0 0 1 0 0)" opacity="1"></g><defs></defs><g id="two-110" transform="matrix(1 0 0 1 0 0)" opacity="1"></g><defs></defs><g id="two-112" transform="matrix(1 0 0 1 0 0)" opacity="1"></g><defs></defs><g id="two-114" transform="matrix(1 0 0 1 0 0)" opacity="1"></g><defs></defs><g id="two-116" transform="matrix(1 0 0 1 0 0)" opacity="1"></g><defs></defs><g id="two-118" transform="matrix(1 0 0 1 0 0)" opacity="1"></g><defs></defs><g id="two-120" transform="matrix(1 0 0 1 0 0)" opacity="1"></g></svg>
