<?xml version="1.0" standalone="no"?>
<svg id="canvas" width="680.314960638" height="933.5433070977" style="overflow: hidden;" xmlns="http://www.w3.org/2000/svg"> <defs></defs><g id="two-0" transform="matrix(1 0 0 1 0 0)" opacity="1"><path transform="matrix(1 0 0 1 340.15747 466.771667)" id="two-396" d="M -204.283794 0.011776 L -313.034434 203.171685 L -101.151138 365.828621 L -127.330163 455.554483 L 130.101816 454.461076 L 103.367731 362.766387 L 314.251565 198.751127 L 204.256322 -4.885803 L 311.765345 -207.546327 L 98.890955 -368.827031 L 124.526998 -456.574188 L -132.8916 -453.294088 L -105.590439 -359.640666 L -315.466556 -194.285138 L -204.223859 9.806394 L -310.49439 211.945221 L -96.637381 371.831939 L -121.742578 457.590732 L 135.64926 452.124299 L 107.769067 356.522455 L 316.629322 189.844862 L 204.136458 -14.678803 L 309.171757 -216.273681 L 94.340713 -374.74881 L 118.927261 -458.509797 L -138.424441 -450.857633 L -109.953327 -353.317893 L -317.789686 -185.336584 L -204.044079 19.596699 L -307.847542 220.625433 L -92.051155 377.671528 L -116.131306 459.425488 L 141.166887 449.588436 L 112.093028 350.121536 L 318.897569 180.855005 L 203.896782 -24.465334 L 306.471942 -224.905795 L 89.719007 -380.505566 L 113.305071 -460.243499 L -143.926247 -448.222642 L -114.237883 -346.839532 L -320.0028 -176.306414 L -203.744534 29.378379 L -305.095057 229.2085 L -87.394478 383.344817 L -110.498817 461.057944 L 146.652268 446.854605 L 116.337707 343.566448 L 321.055307 171.785515 L 203.537401 -34.241088 L 303.667089 -233.438869 L 85.027873 -386.094763 L 107.662903 -461.77453 L -149.394598 -445.390273 L -118.442219 -340.208438 L -322.104925 -167.198603 L -203.325356 39.147129 L -302.238146 237.690641 L -82.669403 388.849307 L -104.847591 462.487382 L 152.102987 443.92401 L 120.501237 336.860078 L 323.101586 162.640386 L 203.058473 -44.001758 L 300.758435 -241.869144 L 80.269377 -391.513941 L 102.003242 -463.102217 L -154.827085 -442.361774 L -122.564485 -333.427531 L -324.095133 -158.017162 L -202.78673 48.898645 L -299.278068 246.068121 L -77.878009 394.182576 L -99.180118 463.713171 L 157.516644 440.797941 L 124.581784 330.005379 L 325.035505 153.423644 L 202.460207 -53.743047 L 297.747259 -250.192908 L 75.445613 -396.760713 L 96.32858 -464.225974 L -160.221316 -439.138478 L -126.602864 -326.499795 L -325.972549 -148.766134 L -202.128892 58.628634 L -296.216126 254.337253 L -73.022406 399.342274 L -93.498892 464.734773 L 162.890855 437.477774 L 128.577551 323.005369 L 326.856212 144.139348 L 201.742869 -63.460665 L 294.634887 -258.406496 L 70.558706 -401.832769 L 90.641416 -465.145307 L -165.574916 -435.721806 L -130.555579 -319.428282 L -327.736346 -139.449592 L -201.352132 68.332812 L -293.053667 262.494393 L -68.104733 404.326129 L -87.806416 465.551736 L 168.223254 433.964972 L 132.486779 315.863131 L 328.562905 134.791587 L 200.906773 -73.150334 L 291.42269 -266.506291 L 65.610808 -406.727875 L 84.944254 -465.859811 L -170.885527 -432.113261 L -134.420889 -312.216105 L -329.385748 -130.07164 L -200.456792 78.006905 L -289.792086 270.535951 L -63.127155 409.131947 L -82.105196 466.163702 L 173.511492 430.261081 L 136.307746 308.58181 L 330.154834 125.384476 L 199.952288 -82.807786 L 288.112083 -274.488726 L 60.604098 -411.443875 L 79.239604 -466.369171 L -176.15081 -428.314432 L -138.197092 -304.866441 L -330.920028 -120.636406 L -199.443267 87.646653 L -286.432817 278.458385 L -58.091864 413.757611 L -76.397743 466.570401 L 178.753241 426.367733 L 140.038769 301.164612 L 331.631296 115.922158 L 198.879834 -92.428769 L 284.704523 -282.350287 L 55.540779 -415.978694 L 73.529976 -466.673163 L -181.368448 -424.326993 L -141.882525 -297.382526 L -332.33851 -111.148045 L -198.312003 97.247812 L -282.977341 286.258208 L -53.001076 418.201085 L -70.686569 466.771653 L 183.946193 422.286641 L 143.678206 293.614803 L 332.991642 106.408799 L 197.689884 -102.009047 L 281.201511 -290.087512 L 50.423083 -420.330334 L 67.817885 -466.771654 L -186.536142 -420.152698 L -145.475565 -289.767654 L -333.64057 -101.610736 L -197.063497 106.806154 L -279.427178 293.931983 L -47.857034 422.460412 L -64.97419 466.767371 L 189.088061 418.019603 L 147.224455 285.935708 L 334.235273 96.848589 L 196.382961 -111.5444 L 277.604589 -297.696993 L 45.253262 -424.496879 L 62.105846 -466.664599 L -191.651618 -415.793387 L -148.974631 -282.025181 L -334.825635 -92.028678 L -195.698301 116.317469 L -275.783893 301.476332 L -42.662003 426.533716 L -59.263121 466.557556 L 194.176581 413.568499 L 150.675952 278.130708 L 335.361641 87.245738 L 194.959641 -121.03063 L 273.915341 -305.17538 L 40.033593 -428.476494 L 56.396376 -466.352047 L -196.712622 -411.250979 L -152.378181 -274.158514 L -335.893182 -82.406091 L -194.217014 125.77757 L -272.049089 308.887933 L -37.418271 430.419204 L -53.555877 466.1423 L 199.209512 408.935287 L 154.03118 270.20324 L 336.37025 77.604474 L 193.420551 -130.46356 L 270.135391 -312.51938 L 34.766375 -432.267427 L 50.691987 -465.834134 L -201.716925 -406.527473 L -155.684717 -266.171118 L -336.842742 -72.747211 L -192.620289 135.18229 L -268.22441 316.163523 L -32.128146 434.115165 L -47.854971 465.521786 L 204.184637 404.122008 L 157.28866 262.156795 L 337.260657 67.929042 L 191.766368 -139.839036 L 266.266405 -319.725758 L 29.453926 -435.868009 L 44.995192 -465.111088 L -206.662326 -401.624951 L -158.892782 -258.06651 L -337.673897 -63.056293 L -190.90883 144.527489 L -264.311542 323.299897 L -26.793958 437.619971 L -42.162914 464.696289 L 209.099767 399.130782 L 160.446957 253.994916 L 338.032468 58.223704 L 189.997821 -149.15293 L 262.310086 -326.791342 L 24.098586 -439.276653 L 39.308499 -464.183229 L -211.546644 -396.54557 L -162.000964 -249.848259 L -338.38628 -53.337603 L -189.08339 153.809052 L -260.312207 330.293913 L -21.418056 440.932078 L -36.482211 463.66617 L 213.952737 393.963806 L 163.504682 245.721197 L 338.685344 48.492732 L 188.115688 -158.401139 L 258.268176 -333.713021 L 18.702713 -442.49186 L 33.634412 -463.050964 L -216.367731 -391.291568 L -165.007895 -241.519983 L -338.979578 -43.59542 L -187.144772 163.022891 L -256.228167 337.142492 L -16.002807 444.05003 L -30.815365 462.431884 L 218.74141 388.623356 L 166.460487 237.339282 L 339.218998 38.740412 L 186.120799 -167.579593 L 254.142454 -340.487746 L 13.268684 -445.512213 L 27.97543 -461.714793 L -221.123462 -385.865258 L -167.91225 -233.08535 L -339.453529 -33.834036 L -185.093831 172.164949 L -252.061219 343.842617 L -10.550596 446.972452 L -25.16487 460.993974 L 223.463676 383.111783 L 169.313072 228.852861 L 339.633195 28.971038 L 184.014031 -176.684249 L 249.934738 -347.112533 L 7.798891 -448.336382 L 22.334045 -460.175303 L -225.811744 -380.269029 L -170.71275 -224.548075 L -339.807925 -24.057748 L -182.931469 181.2312 L -247.813198 350.391339 L -5.063823 449.698057 L -19.533216 459.353073 L 228.117458 377.431514 L 172.061179 220.265671 L 339.927752 19.188911 L 181.796313 -185.711098 L 245.646881 -353.584467 L 2.295743 -450.963124 L 16.712741 -458.433172 L -230.430513 -374.505346 L -173.408162 -215.911916 L -340.04261 -14.270861 L -180.658639 190.217653 L -243.485975 356.785772 L 0.455095 452.225646 L -13.922881 457.509905 L 232.700705 371.585051 L 174.703599 211.581494 L 340.102539 9.398341 L 179.468621 -194.656165 L 241.28077 -359.900697 L -3.238338 -453.391282 L 11.113993 -456.489168 L -234.977734 -368.576747 L -175.997299 -207.180677 L -340.157481 -4.477684 L -178.276341 199.120349 L -239.081456 363.023103 L 6.003729 454.554106 L -8.336337 455.46528 L 237.211399 365.574968 L 177.239169 202.804153 L 340.15748 -0.396363 L 177.03198 -203.515511 L 236.838328 -366.058442 L -8.800913 -455.619787 L 5.540267 -454.344147 L -239.451405 -362.485842 L -178.479022 -198.358201 L -340.152486 5.317469 L -175.785625 207.93537 L -234.601581 369.100584 L 11.579634 456.682411 L -2.776042 453.220099 L 241.647554 359.403912 L 179.666771 193.937514 L 340.09255 -10.190887 L 174.487463 -212.285235 L 232.321511 -372.05499 L -14.389534 -457.647657 L -0.005983 -451.999053 L -243.849556 -356.235313 L -180.852236 -189.448375 L -340.027628 15.110286 L -173.187587 216.658832 L -230.04832 375.015539 L 17.180356 458.609623 L 2.755553 450.77535 L 246.007217 353.074599 L 181.985337 184.985481 L 339.907778 -19.980919 L 171.83619 -220.961475 L 227.732309 -377.887701 L -20.00174 -459.473999 L -5.522315 -449.454919 L -248.170251 -349.827914 L -183.115898 -180.455121 L -339.782963 24.896454 L -170.483372 225.286895 L -225.423681 380.765364 L 22.803428 460.334895 L 8.256014 448.13211 L 250.288468 346.589818 L 184.193846 175.951996 L 339.603246 -29.762147 L 169.07933 -229.540412 L 223.072741 -383.554006 L -25.63506 -461.09801 L -11.0063 -446.712865 L -252.411586 -343.266464 L -185.269011 -171.382399 L -339.418597 34.671665 L -167.674169 233.81576 L -220.729699 386.347526 L 28.446374 461.857466 L 13.722919 445.291544 L 254.489421 339.952423 L 186.291325 166.841037 L 339.179087 -39.530264 L 166.218095 -238.018266 L 218.344861 -389.05141 L -31.287012 -462.518975 L -16.455523 -443.774099 L -256.571695 -336.553854 L -187.310626 -162.234205 L -338.934691 44.431613 L -164.761217 242.241671 L -215.968441 391.759567 L 34.10671 463.176667 L 19.15386 442.254901 L 258.608228 333.165337 L 188.276851 157.656615 L 338.635488 -49.280969 L 163.253746 -246.391305 L 213.550749 -394.377493 L -36.955108 -463.736266 L -21.867583 -440.639914 L -260.648745 -329.69304 L -189.239844 -153.014567 L -338.331459 54.172001 L -161.745798 250.560917 L -211.142003 396.999105 L 39.781943 464.291916 L 24.546445 439.023519 L 262.643073 326.231549 L 190.149549 148.402776 L 337.972689 -59.009968 L 160.187588 -254.655843 L 208.692518 -399.529909 L -42.636853 -464.749349 L -27.2401 -437.311691 L -264.640941 -322.687042 L -191.055816 -143.727545 L -337.609166 63.888541 L -158.629239 258.769836 L -206.252512 402.063831 L 45.469573 465.202722 L 29.8983 435.598821 L 266.59218 319.154113 L 191.908595 139.083594 L 337.190981 -68.712978 L 157.020972 -262.808239 L 203.772305 -404.506389 " fill="none" stroke="#000" stroke-width="0.75590551182" stroke-opacity="1" fill-opacity="1" visibility="visible" stroke-linecap="butt" stroke-linejoin="miter" stroke-miterlimit="4"></path></g><defs></defs><g id="two-1" transform="matrix(1 0 0 1 0 0)" opacity="1"></g><defs></defs><g id="two-4" transform="matrix(1 0 0 1 0 0)" opacity="1"></g><defs></defs><g id="two-6" transform="matrix(1 0 0 1 0 0)" opacity="1"></g><defs></defs><g id="two-8" transform="matrix(1 0 0 1 0 0)" opacity="1"></g><defs></defs><g id="two-10" transform="matrix(1 0 0 1 0 0)" opacity="1"></g><defs></defs><g id="two-12" transform="matrix(1 0 0 1 0 0)" opacity="1"></g><defs></defs><g id="two-14" transform="matrix(1 0 0 1 0 0)" opacity="1"></g><defs></defs><g id="two-16" transform="matrix(1 0 0 1 0 0)" opacity="1"></g><defs></defs><g id="two-18" transform="matrix(1 0 0 1 0 0)" opacity="1"></g><defs></defs><g id="two-20" transform="matrix(1 0 0 1 0 0)" opacity="1"></g><defs></defs><g id="two-22" transform="matrix(1 0 0 1 0 0)" opacity="1"></g><defs></defs><g id="two-24" transform="matrix(1 0 0 1 0 0)" opacity="1"></g><defs></defs><g id="two-26" transform="matrix(1 0 0 1 0 0)" opacity="1"></g><defs></defs><g id="two-28" transform="matrix(1 0 0 1 0 0)" opacity="1"></g><defs></defs><g id="two-30" transform="matrix(1 0 0 1 0 0)" opacity="1"></g><defs></defs><g id="two-32" transform="matrix(1 0 0 1 0 0)" opacity="1"></g><defs></defs><g id="two-34" transform="matrix(1 0 0 1 0 0)" opacity="1"></g><defs></defs><g id="two-36" transform="matrix(1 0 0 1 0 0)" opacity="1"></g><defs></defs><g id="two-38" transform="matrix(1 0 0 1 0 0)" opacity="1"></g><defs></defs><g id="two-40" transform="matrix(1 0 0 1 0 0)" opacity="1"></g><defs></defs><g id="two-42" transform="matrix(1 0 0 1 0 0)" opacity="1"></g><defs></defs><g id="two-44" transform="matrix(1 0 0 1 0 0)" opacity="1"></g><defs></defs><g id="two-46" transform="matrix(1 0 0 1 0 0)" opacity="1"></g><defs></defs><g id="two-48" transform="matrix(1 0 0 1 0 0)" opacity="1"></g><defs></defs><g id="two-50" transform="matrix(1 0 0 1 0 0)" opacity="1"></g><defs></defs><g id="two-52" transform="matrix(1 0 0 1 0 0)" opacity="1"></g><defs></defs><g id="two-54" transform="matrix(1 0 0 1 0 0)" opacity="1"></g><defs></defs><g id="two-56" transform="matrix(1 0 0 1 0 0)" opacity="1"></g><defs></defs><g id="two-58" transform="matrix(1 0 0 1 0 0)" opacity="1"></g><defs></defs><g id="two-60" transform="matrix(1 0 0 1 0 0)" opacity="1"></g><defs></defs><g id="two-62" transform="matrix(1 0 0 1 0 0)" opacity="1"></g><defs></defs><g id="two-64" transform="matrix(1 0 0 1 0 0)" opacity="1"></g><defs></defs><g id="two-66" transform="matrix(1 0 0 1 0 0)" opacity="1"></g><defs></defs><g id="two-68" transform="matrix(1 0 0 1 0 0)" opacity="1"></g><defs></defs><g id="two-70" transform="matrix(1 0 0 1 0 0)" opacity="1"></g><defs></defs><g id="two-72" transform="matrix(1 0 0 1 0 0)" opacity="1"></g><defs></defs><g id="two-74" transform="matrix(1 0 0 1 0 0)" opacity="1"></g><defs></defs><g id="two-76" transform="matrix(1 0 0 1 0 0)" opacity="1"></g><defs></defs><g id="two-78" transform="matrix(1 0 0 1 0 0)" opacity="1"></g><defs></defs><g id="two-80" transform="matrix(1 0 0 1 0 0)" opacity="1"></g><defs></defs><g id="two-82" transform="matrix(1 0 0 1 0 0)" opacity="1"></g><defs></defs><g id="two-84" transform="matrix(1 0 0 1 0 0)" opacity="1"></g><defs></defs><g id="two-86" transform="matrix(1 0 0 1 0 0)" opacity="1"></g><defs></defs><g id="two-88" transform="matrix(1 0 0 1 0 0)" opacity="1"></g><defs></defs><g id="two-90" transform="matrix(1 0 0 1 0 0)" opacity="1"></g><defs></defs><g id="two-92" transform="matrix(1 0 0 1 0 0)" opacity="1"></g><defs></defs><g id="two-94" transform="matrix(1 0 0 1 0 0)" opacity="1"></g><defs></defs><g id="two-96" transform="matrix(1 0 0 1 0 0)" opacity="1"></g><defs></defs><g id="two-98" transform="matrix(1 0 0 1 0 0)" opacity="1"></g><defs></defs><g id="two-100" transform="matrix(1 0 0 1 0 0)" opacity="1"></g><defs></defs><g id="two-102" transform="matrix(1 0 0 1 0 0)" opacity="1"></g><defs></defs><g id="two-104" transform="matrix(1 0 0 1 0 0)" opacity="1"></g><defs></defs><g id="two-106" transform="matrix(1 0 0 1 0 0)" opacity="1"></g><defs></defs><g id="two-108" transform="matrix(1 0 0 1 0 0)" opacity="1"></g><defs></defs><g id="two-110" transform="matrix(1 0 0 1 0 0)" opacity="1"></g><defs></defs><g id="two-112" transform="matrix(1 0 0 1 0 0)" opacity="1"></g><defs></defs><g id="two-114" transform="matrix(1 0 0 1 0 0)" opacity="1"></g><defs></defs><g id="two-116" transform="matrix(1 0 0 1 0 0)" opacity="1"></g><defs></defs><g id="two-118" transform="matrix(1 0 0 1 0 0)" opacity="1"></g><defs></defs><g id="two-120" transform="matrix(1 0 0 1 0 0)" opacity="1"></g><defs></defs><g id="two-126" transform="matrix(1 0 0 1 0 0)" opacity="1"></g><defs></defs><g id="two-127" transform="matrix(1 0 0 1 0 0)" opacity="1"></g><defs></defs><g id="two-129" transform="matrix(1 0 0 1 0 0)" opacity="1"></g><defs></defs><g id="two-131" transform="matrix(1 0 0 1 0 0)" opacity="1"></g><defs></defs><g id="two-133" transform="matrix(1 0 0 1 0 0)" opacity="1"></g><defs></defs><g id="two-135" transform="matrix(1 0 0 1 0 0)" opacity="1"></g><defs></defs><g id="two-137" transform="matrix(1 0 0 1 0 0)" opacity="1"></g><defs></defs><g id="two-139" transform="matrix(1 0 0 1 0 0)" opacity="1"></g><defs></defs><g id="two-143" transform="matrix(1 0 0 1 0 0)" opacity="1"></g><defs></defs><g id="two-145" transform="matrix(1 0 0 1 0 0)" opacity="1"></g><defs></defs><g id="two-147" transform="matrix(1 0 0 1 0 0)" opacity="1"></g><defs></defs><g id="two-149" transform="matrix(1 0 0 1 0 0)" opacity="1"></g><defs></defs><g id="two-151" transform="matrix(1 0 0 1 0 0)" opacity="1"></g><defs></defs><g id="two-153" transform="matrix(1 0 0 1 0 0)" opacity="1"></g><defs></defs><g id="two-155" transform="matrix(1 0 0 1 0 0)" opacity="1"></g><defs></defs><g id="two-157" transform="matrix(1 0 0 1 0 0)" opacity="1"></g><defs></defs><g id="two-159" transform="matrix(1 0 0 1 0 0)" opacity="1"></g><defs></defs><g id="two-161" transform="matrix(1 0 0 1 0 0)" opacity="1"></g><defs></defs><g id="two-163" transform="matrix(1 0 0 1 0 0)" opacity="1"></g><defs></defs><g id="two-165" transform="matrix(1 0 0 1 0 0)" opacity="1"></g><defs></defs><g id="two-167" transform="matrix(1 0 0 1 0 0)" opacity="1"></g><defs></defs><g id="two-169" transform="matrix(1 0 0 1 0 0)" opacity="1"></g><defs></defs><g id="two-171" transform="matrix(1 0 0 1 0 0)" opacity="1"></g><defs></defs><g id="two-173" transform="matrix(1 0 0 1 0 0)" opacity="1"></g><defs></defs><g id="two-175" transform="matrix(1 0 0 1 0 0)" opacity="1"></g><defs></defs><g id="two-177" transform="matrix(1 0 0 1 0 0)" opacity="1"></g><defs></defs><g id="two-179" transform="matrix(1 0 0 1 0 0)" opacity="1"></g><defs></defs><g id="two-181" transform="matrix(1 0 0 1 0 0)" opacity="1"></g><defs></defs><g id="two-183" transform="matrix(1 0 0 1 0 0)" opacity="1"></g><defs></defs><g id="two-185" transform="matrix(1 0 0 1 0 0)" opacity="1"></g><defs></defs><g id="two-187" transform="matrix(1 0 0 1 0 0)" opacity="1"></g><defs></defs><g id="two-189" transform="matrix(1 0 0 1 0 0)" opacity="1"></g><defs></defs><g id="two-191" transform="matrix(1 0 0 1 0 0)" opacity="1"></g><defs></defs><g id="two-193" transform="matrix(1 0 0 1 0 0)" opacity="1"></g><defs></defs><g id="two-195" transform="matrix(1 0 0 1 0 0)" opacity="1"></g><defs></defs><g id="two-197" transform="matrix(1 0 0 1 0 0)" opacity="1"></g><defs></defs><g id="two-199" transform="matrix(1 0 0 1 0 0)" opacity="1"></g><defs></defs><g id="two-201" transform="matrix(1 0 0 1 0 0)" opacity="1"></g><defs></defs><g id="two-203" transform="matrix(1 0 0 1 0 0)" opacity="1"></g><defs></defs><g id="two-205" transform="matrix(1 0 0 1 0 0)" opacity="1"></g><defs></defs><g id="two-207" transform="matrix(1 0 0 1 0 0)" opacity="1"></g><defs></defs><g id="two-209" transform="matrix(1 0 0 1 0 0)" opacity="1"></g><defs></defs><g id="two-211" transform="matrix(1 0 0 1 0 0)" opacity="1"></g><defs></defs><g id="two-213" transform="matrix(1 0 0 1 0 0)" opacity="1"></g><defs></defs><g id="two-215" transform="matrix(1 0 0 1 0 0)" opacity="1"></g><defs></defs><g id="two-217" transform="matrix(1 0 0 1 0 0)" opacity="1"></g><defs></defs><g id="two-219" transform="matrix(1 0 0 1 0 0)" opacity="1"></g><defs></defs><g id="two-221" transform="matrix(1 0 0 1 0 0)" opacity="1"></g><defs></defs><g id="two-223" transform="matrix(1 0 0 1 0 0)" opacity="1"></g><defs></defs><g id="two-225" transform="matrix(1 0 0 1 0 0)" opacity="1"></g><defs></defs><g id="two-227" transform="matrix(1 0 0 1 0 0)" opacity="1"></g><defs></defs><g id="two-229" transform="matrix(1 0 0 1 0 0)" opacity="1"></g><defs></defs><g id="two-231" transform="matrix(1 0 0 1 0 0)" opacity="1"></g><defs></defs><g id="two-233" transform="matrix(1 0 0 1 0 0)" opacity="1"></g><defs></defs><g id="two-235" transform="matrix(1 0 0 1 0 0)" opacity="1"></g><defs></defs><g id="two-237" transform="matrix(1 0 0 1 0 0)" opacity="1"></g><defs></defs><g id="two-239" transform="matrix(1 0 0 1 0 0)" opacity="1"></g><defs></defs><g id="two-241" transform="matrix(1 0 0 1 0 0)" opacity="1"></g><defs></defs><g id="two-243" transform="matrix(1 0 0 1 0 0)" opacity="1"></g><defs></defs><g id="two-245" transform="matrix(1 0 0 1 0 0)" opacity="1"></g><defs></defs><g id="two-247" transform="matrix(1 0 0 1 0 0)" opacity="1"></g><defs></defs><g id="two-249" transform="matrix(1 0 0 1 0 0)" opacity="1"></g><defs></defs><g id="two-251" transform="matrix(1 0 0 1 0 0)" opacity="1"></g><defs></defs><g id="two-253" transform="matrix(1 0 0 1 0 0)" opacity="1"></g><defs></defs><g id="two-255" transform="matrix(1 0 0 1 0 0)" opacity="1"></g><defs></defs><g id="two-257" transform="matrix(1 0 0 1 0 0)" opacity="1"></g><defs></defs><g id="two-259" transform="matrix(1 0 0 1 0 0)" opacity="1"></g><defs></defs><g id="two-261" transform="matrix(1 0 0 1 0 0)" opacity="1"></g><defs></defs><g id="two-263" transform="matrix(1 0 0 1 0 0)" opacity="1"></g><defs></defs><g id="two-265" transform="matrix(1 0 0 1 0 0)" opacity="1"></g><defs></defs><g id="two-267" transform="matrix(1 0 0 1 0 0)" opacity="1"></g><defs></defs><g id="two-269" transform="matrix(1 0 0 1 0 0)" opacity="1"></g><defs></defs><g id="two-271" transform="matrix(1 0 0 1 0 0)" opacity="1"></g><defs></defs><g id="two-273" transform="matrix(1 0 0 1 0 0)" opacity="1"></g><defs></defs><g id="two-275" transform="matrix(1 0 0 1 0 0)" opacity="1"></g><defs></defs><g id="two-277" transform="matrix(1 0 0 1 0 0)" opacity="1"></g><defs></defs><g id="two-279" transform="matrix(1 0 0 1 0 0)" opacity="1"></g><defs></defs><g id="two-281" transform="matrix(1 0 0 1 0 0)" opacity="1"></g><defs></defs><g id="two-283" transform="matrix(1 0 0 1 0 0)" opacity="1"></g><defs></defs><g id="two-285" transform="matrix(1 0 0 1 0 0)" opacity="1"></g><defs></defs><g id="two-287" transform="matrix(1 0 0 1 0 0)" opacity="1"></g><defs></defs><g id="two-289" transform="matrix(1 0 0 1 0 0)" opacity="1"></g><defs></defs><g id="two-291" transform="matrix(1 0 0 1 0 0)" opacity="1"></g><defs></defs><g id="two-293" transform="matrix(1 0 0 1 0 0)" opacity="1"></g><defs></defs><g id="two-295" transform="matrix(1 0 0 1 0 0)" opacity="1"></g><defs></defs><g id="two-297" transform="matrix(1 0 0 1 0 0)" opacity="1"></g><defs></defs><g id="two-299" transform="matrix(1 0 0 1 0 0)" opacity="1"></g><defs></defs><g id="two-301" transform="matrix(1 0 0 1 0 0)" opacity="1"></g><defs></defs><g id="two-303" transform="matrix(1 0 0 1 0 0)" opacity="1"></g><defs></defs><g id="two-305" transform="matrix(1 0 0 1 0 0)" opacity="1"></g><defs></defs><g id="two-307" transform="matrix(1 0 0 1 0 0)" opacity="1"></g><defs></defs><g id="two-309" transform="matrix(1 0 0 1 0 0)" opacity="1"></g><defs></defs><g id="two-311" transform="matrix(1 0 0 1 0 0)" opacity="1"></g><defs></defs><g id="two-313" transform="matrix(1 0 0 1 0 0)" opacity="1"></g><defs></defs><g id="two-315" transform="matrix(1 0 0 1 0 0)" opacity="1"></g><defs></defs><g id="two-317" transform="matrix(1 0 0 1 0 0)" opacity="1"></g><defs></defs><g id="two-319" transform="matrix(1 0 0 1 0 0)" opacity="1"></g><defs></defs><g id="two-321" transform="matrix(1 0 0 1 0 0)" opacity="1"></g><defs></defs><g id="two-323" transform="matrix(1 0 0 1 0 0)" opacity="1"></g><defs></defs><g id="two-325" transform="matrix(1 0 0 1 0 0)" opacity="1"></g><defs></defs><g id="two-327" transform="matrix(1 0 0 1 0 0)" opacity="1"></g><defs></defs><g id="two-329" transform="matrix(1 0 0 1 0 0)" opacity="1"></g><defs></defs><g id="two-331" transform="matrix(1 0 0 1 0 0)" opacity="1"></g><defs></defs><g id="two-333" transform="matrix(1 0 0 1 0 0)" opacity="1"></g><defs></defs><g id="two-335" transform="matrix(1 0 0 1 0 0)" opacity="1"></g><defs></defs><g id="two-337" transform="matrix(1 0 0 1 0 0)" opacity="1"></g><defs></defs><g id="two-339" transform="matrix(1 0 0 1 0 0)" opacity="1"></g><defs></defs><g id="two-341" transform="matrix(1 0 0 1 0 0)" opacity="1"></g><defs></defs><g id="two-343" transform="matrix(1 0 0 1 0 0)" opacity="1"></g><defs></defs><g id="two-345" transform="matrix(1 0 0 1 0 0)" opacity="1"></g><defs></defs><g id="two-347" transform="matrix(1 0 0 1 0 0)" opacity="1"></g><defs></defs><g id="two-349" transform="matrix(1 0 0 1 0 0)" opacity="1"></g><defs></defs><g id="two-351" transform="matrix(1 0 0 1 0 0)" opacity="1"></g><defs></defs><g id="two-353" transform="matrix(1 0 0 1 0 0)" opacity="1"></g><defs></defs><g id="two-355" transform="matrix(1 0 0 1 0 0)" opacity="1"></g><defs></defs><g id="two-357" transform="matrix(1 0 0 1 0 0)" opacity="1"></g><defs></defs><g id="two-359" transform="matrix(1 0 0 1 0 0)" opacity="1"></g><defs></defs><g id="two-361" transform="matrix(1 0 0 1 0 0)" opacity="1"></g><defs></defs><g id="two-363" transform="matrix(1 0 0 1 0 0)" opacity="1"></g><defs></defs><g id="two-365" transform="matrix(1 0 0 1 0 0)" opacity="1"></g><defs></defs><g id="two-367" transform="matrix(1 0 0 1 0 0)" opacity="1"></g><defs></defs><g id="two-369" transform="matrix(1 0 0 1 0 0)" opacity="1"></g><defs></defs><g id="two-371" transform="matrix(1 0 0 1 0 0)" opacity="1"></g><defs></defs><g id="two-373" transform="matrix(1 0 0 1 0 0)" opacity="1"></g><defs></defs><g id="two-375" transform="matrix(1 0 0 1 0 0)" opacity="1"></g><defs></defs><g id="two-377" transform="matrix(1 0 0 1 0 0)" opacity="1"></g><defs></defs><g id="two-379" transform="matrix(1 0 0 1 0 0)" opacity="1"></g><defs></defs><g id="two-381" transform="matrix(1 0 0 1 0 0)" opacity="1"></g><defs></defs><g id="two-383" transform="matrix(1 0 0 1 0 0)" opacity="1"></g><defs></defs><g id="two-385" transform="matrix(1 0 0 1 0 0)" opacity="1"></g><defs></defs><g id="two-387" transform="matrix(1 0 0 1 0 0)" opacity="1"></g><defs></defs><g id="two-389" transform="matrix(1 0 0 1 0 0)" opacity="1"></g><defs></defs><g id="two-391" transform="matrix(1 0 0 1 0 0)" opacity="1"></g><defs></defs><g id="two-393" transform="matrix(1 0 0 1 0 0)" opacity="1"></g><defs></defs><g id="two-395" transform="matrix(1 0 0 1 0 0)" opacity="1"></g></svg>
